<svg width="107" height="77" viewBox="0 0 107 77" fill="none" xmlns="http://www.w3.org/2000/svg">
<path fill-rule="evenodd" clip-rule="evenodd" d="M65.9981 24.536C69.5988 28.4384 71.5723 33.3887 71.5664 38.5035C71.5731 43.6195 69.6033 48.5642 66.0018 52.4675C62.4002 56.3708 57.4052 58.9716 51.9084 59.8056C46.4117 60.6397 40.7711 59.6526 35.9936 57.0207C31.2161 54.3887 27.6128 50.2833 25.8269 45.4372H0V31.5558H25.8269C27.615 26.7118 31.2193 22.6087 35.9966 19.9789C40.7739 17.3491 46.4134 16.3636 51.9087 17.1983C57.404 18.033 62.3975 20.6336 65.9981 24.536Z" fill="#535353"/>
<path d="M48.0674 0C68.6375 0 85.7043 13.6107 89.2719 31.5628L89.2756 31.5524H107V45.4337H89.2756C85.7119 63.3754 68.6375 76.9861 48.0712 77V63.1117C55.1765 63.1016 61.9877 60.5055 67.0123 55.8922C72.0368 51.2789 74.865 45.0246 74.8769 38.5C74.867 31.9736 72.0392 25.717 67.0136 21.1021C61.988 16.4872 55.1747 13.8906 48.0674 13.8814V0Z" fill="#F18018"/>
</svg>
