<svg width="372" height="305" viewBox="0 0 372 305" fill="none" xmlns="http://www.w3.org/2000/svg">
<path d="M144.29 119.716V75.294H156.874C164.065 75.294 169.674 77.1279 173.701 80.7958C177.728 84.4637 179.742 89.9656 179.742 97.3014C179.742 104.683 177.752 110.275 173.773 114.079C169.794 117.837 164.305 119.716 157.305 119.716H144.29ZM152.631 113.332H156.299C161.045 113.332 164.712 112.041 167.301 109.46C169.89 106.833 171.184 102.781 171.184 97.3014C171.184 91.8675 169.89 87.9052 167.301 85.4147C164.712 82.9241 161.045 81.6788 156.299 81.6788H152.631V113.332Z" fill="#F18018"/>
<path d="M189.234 119.716V75.294H217.567V81.9505H197.576V93.2939H214.475V99.9505H197.576V113.06H218.286V119.716H189.234Z" fill="#F18018"/>
<path d="M236.342 119.716L221.672 75.294H230.517L237.133 97.641C237.9 100.132 238.595 102.532 239.218 104.841C239.842 107.15 240.537 109.573 241.304 112.109H241.591C242.406 109.573 243.102 107.15 243.677 104.841C244.3 102.532 244.971 100.132 245.69 97.641L252.234 75.294H260.792L246.194 119.716H236.342Z" fill="#F18018"/>
<path d="M27.2543 265.719C23.3711 265.719 19.7516 265.131 16.3957 263.953C13.0878 262.731 10.2114 261.01 7.7664 258.791C5.32142 256.572 3.40379 253.969 2.01351 250.98C0.67117 247.991 0 244.708 0 241.131C0 237.554 0.67117 234.271 2.01351 231.282C3.40379 228.293 5.32142 225.689 7.7664 223.471C10.2593 221.252 13.1597 219.554 16.4676 218.376C19.7755 217.154 23.3951 216.542 27.3262 216.542C31.6888 216.542 35.62 217.267 39.1196 218.716C42.6672 220.12 45.6396 222.203 48.0366 224.965L40.5579 231.486C38.832 229.629 36.9144 228.248 34.805 227.342C32.6956 226.391 30.3944 225.916 27.9015 225.916C25.5524 225.916 23.3951 226.278 21.4295 227.003C19.4639 227.727 17.762 228.769 16.3238 230.127C14.8856 231.486 13.759 233.093 12.944 234.95C12.1769 236.806 11.7934 238.867 11.7934 241.131C11.7934 243.395 12.1769 245.455 12.944 247.312C13.759 249.169 14.8856 250.776 16.3238 252.135C17.762 253.493 19.4639 254.535 21.4295 255.259C23.3951 255.984 25.5524 256.346 27.9015 256.346C30.3944 256.346 32.6956 255.893 34.805 254.987C36.9144 254.036 38.832 252.61 40.5579 250.708L48.0366 257.229C45.6396 259.991 42.6672 262.097 39.1196 263.546C35.62 264.995 31.6649 265.719 27.2543 265.719Z" fill="white"/>
<path d="M79.2999 265.719C75.3209 265.719 71.6294 265.108 68.2256 263.885C64.8698 262.663 61.9454 260.942 59.4525 258.723C57.0075 256.504 55.0899 253.901 53.6996 250.912C52.3573 247.923 51.6861 244.663 51.6861 241.131C51.6861 237.599 52.3573 234.338 53.6996 231.35C55.0899 228.361 57.0315 225.757 59.5244 223.539C62.0173 221.32 64.9417 219.599 68.2976 218.376C71.6534 217.154 75.2969 216.542 79.228 216.542C83.2071 216.542 86.8506 217.154 90.1585 218.376C93.5144 219.599 96.4148 221.32 98.8598 223.539C101.353 225.757 103.294 228.361 104.685 231.35C106.075 234.293 106.77 237.554 106.77 241.131C106.77 244.663 106.075 247.946 104.685 250.98C103.294 253.969 101.353 256.572 98.8598 258.791C96.4148 260.965 93.5144 262.663 90.1585 263.885C86.8506 265.108 83.2311 265.719 79.2999 265.719ZM79.228 256.346C81.4813 256.346 83.5427 255.984 85.4124 255.259C87.33 254.535 89.0079 253.493 90.4462 252.135C91.8844 250.776 92.987 249.169 93.7541 247.312C94.5691 245.455 94.9766 243.395 94.9766 241.131C94.9766 238.867 94.5691 236.806 93.7541 234.95C92.987 233.093 91.8844 231.486 90.4462 230.127C89.0559 228.769 87.4019 227.727 85.4843 227.003C83.5667 226.278 81.4813 225.916 79.228 225.916C76.9748 225.916 74.8894 226.278 72.9718 227.003C71.1021 227.727 69.4481 228.769 68.0099 230.127C66.5717 231.486 65.4451 233.093 64.6301 234.95C63.863 236.806 63.4795 238.867 63.4795 241.131C63.4795 243.35 63.863 245.41 64.6301 247.312C65.4451 249.169 66.5477 250.776 67.938 252.135C69.3762 253.493 71.0541 254.535 72.9718 255.259C74.8894 255.984 76.9748 256.346 79.228 256.346Z" fill="white"/>
<path d="M115.525 264.904V217.357H137.314C141.821 217.357 145.704 218.059 148.964 219.463C152.224 220.822 154.741 222.791 156.514 225.372C158.288 227.954 159.175 231.033 159.175 234.61C159.175 238.142 158.288 241.199 156.514 243.78C154.741 246.316 152.224 248.263 148.964 249.621C145.704 250.98 141.821 251.659 137.314 251.659H121.997L127.175 246.837V264.904H115.525ZM147.526 264.904L134.941 247.652H147.382L160.11 264.904H147.526ZM127.175 248.059L121.997 242.897H136.667C140.263 242.897 142.947 242.172 144.721 240.723C146.495 239.229 147.382 237.191 147.382 234.61C147.382 231.984 146.495 229.946 144.721 228.497C142.947 227.048 140.263 226.323 136.667 226.323H121.997L127.175 221.093V248.059Z" fill="white"/>
<path d="M179.12 236.512H203.354V245.07H179.12V236.512ZM179.983 256.074H207.381V264.904H168.405V217.357H206.446V226.188H179.983V256.074Z" fill="white"/>
<path d="M216.65 264.904V217.357H239.518C244.983 217.357 249.801 218.354 253.972 220.346C258.143 222.293 261.403 225.033 263.752 228.565C266.101 232.097 267.276 236.286 267.276 241.131C267.276 245.931 266.101 250.12 263.752 253.697C261.403 257.229 258.143 259.991 253.972 261.984C249.801 263.931 244.983 264.904 239.518 264.904H216.65ZM228.3 255.87H238.943C242.298 255.87 245.199 255.282 247.644 254.104C250.137 252.882 252.054 251.161 253.397 248.942C254.787 246.723 255.482 244.12 255.482 241.131C255.482 238.097 254.787 235.493 253.397 233.32C252.054 231.101 250.137 229.403 247.644 228.225C245.199 227.003 242.298 226.391 238.943 226.391H228.3V255.87Z" fill="#F18018"/>
<path d="M286.776 236.512H311.01V245.07H286.776V236.512ZM287.639 256.074H315.037V264.904H276.061V217.357H314.102V226.188H287.639V256.074Z" fill="#F18018"/>
<path d="M338.705 264.904L316.988 217.357H329.572L348.557 259.47H341.15L360.422 217.357H372L350.211 264.904H338.705Z" fill="#F18018"/>
<path d="M59.8049 305C58.4625 305 57.1789 304.81 55.954 304.429C54.7291 304.033 53.7643 303.526 53.0596 302.908L53.9908 301.054C54.662 301.608 55.5178 302.068 56.5581 302.432C57.5984 302.797 58.6806 302.979 59.8049 302.979C60.8284 302.979 61.659 302.868 62.2966 302.646C62.9342 302.425 63.404 302.123 63.706 301.743C64.0081 301.347 64.1591 300.903 64.1591 300.412C64.1591 299.841 63.9577 299.382 63.555 299.033C63.1691 298.684 62.6573 298.407 62.0197 298.201C61.3989 297.979 60.7109 297.789 59.9559 297.63C59.2008 297.472 58.4373 297.289 57.6655 297.083C56.9104 296.862 56.2141 296.584 55.5765 296.251C54.9557 295.919 54.4523 295.475 54.0663 294.92C53.6804 294.349 53.4875 293.62 53.4875 292.733C53.4875 291.877 53.7224 291.093 54.1922 290.379C54.6788 289.65 55.4171 289.072 56.4071 288.644C57.4138 288.2 58.689 287.978 60.2327 287.978C61.2563 287.978 62.2714 288.105 63.2782 288.359C64.2849 288.612 65.1574 288.977 65.8957 289.452L65.0652 291.354C64.3101 290.879 63.5131 290.538 62.6741 290.332C61.8351 290.11 61.0214 289.999 60.2327 289.999C59.2428 289.999 58.429 290.118 57.7913 290.356C57.1537 290.593 56.6839 290.91 56.3819 291.306C56.0966 291.703 55.954 292.146 55.954 292.638C55.954 293.224 56.147 293.692 56.5329 294.04C56.9356 294.389 57.4474 294.666 58.0682 294.872C58.7058 295.079 59.4022 295.269 60.1572 295.443C60.9123 295.602 61.6674 295.784 62.4224 295.99C63.1943 296.196 63.8906 296.465 64.5114 296.798C65.149 297.131 65.6608 297.575 66.0467 298.129C66.4327 298.684 66.6256 299.397 66.6256 300.269C66.6256 301.109 66.3823 301.894 65.8957 302.623C65.4091 303.336 64.6541 303.914 63.6305 304.358C62.6238 304.786 61.3485 305 59.8049 305Z" fill="white"/>
<path d="M85.0152 305C83.6729 305 82.4228 304.786 81.2651 304.358C80.1241 303.93 79.1341 303.336 78.2951 302.575C77.4562 301.799 76.8018 300.895 76.332 299.865C75.8621 298.835 75.6272 297.71 75.6272 296.489C75.6272 295.269 75.8621 294.143 76.332 293.113C76.8018 292.083 77.4562 291.188 78.2951 290.427C79.1341 289.65 80.1241 289.048 81.2651 288.62C82.4061 288.192 83.6561 287.978 85.0152 287.978C86.3576 287.978 87.5908 288.192 88.7151 288.62C89.856 289.032 90.846 289.627 91.685 290.403C92.5407 291.164 93.1951 292.059 93.6482 293.089C94.118 294.12 94.3529 295.253 94.3529 296.489C94.3529 297.725 94.118 298.859 93.6482 299.889C93.1951 300.919 92.5407 301.822 91.685 302.599C90.846 303.36 89.856 303.954 88.7151 304.382C87.5908 304.794 86.3576 305 85.0152 305ZM85.0152 302.884C85.9884 302.884 86.8861 302.726 87.7083 302.409C88.5473 302.092 89.2688 301.648 89.8728 301.077C90.4937 300.491 90.9719 299.809 91.3074 299.033C91.6598 298.256 91.836 297.408 91.836 296.489C91.836 295.57 91.6598 294.722 91.3074 293.945C90.9719 293.169 90.4937 292.495 89.8728 291.925C89.2688 291.338 88.5473 290.887 87.7083 290.57C86.8861 290.253 85.9884 290.094 85.0152 290.094C84.0252 290.094 83.1108 290.253 82.2718 290.57C81.4496 290.887 80.7281 291.338 80.1073 291.925C79.4865 292.495 78.9999 293.169 78.6475 293.945C78.3119 294.722 78.1441 295.57 78.1441 296.489C78.1441 297.408 78.3119 298.256 78.6475 299.033C78.9999 299.809 79.4865 300.491 80.1073 301.077C80.7281 301.648 81.4496 302.092 82.2718 302.409C83.1108 302.726 84.0252 302.884 85.0152 302.884Z" fill="white"/>
<path d="M104.959 304.81V288.168H107.476V302.742H117.015V304.81H104.959Z" fill="white"/>
<path d="M133.961 305C131.646 305 129.825 304.374 128.5 303.122C127.174 301.87 126.511 300.039 126.511 297.63V288.168H129.028V297.535C129.028 299.389 129.456 300.745 130.312 301.6C131.184 302.456 132.409 302.884 133.986 302.884C135.58 302.884 136.805 302.456 137.661 301.6C138.534 300.745 138.97 299.389 138.97 297.535V288.168H141.411V297.63C141.411 300.039 140.748 301.87 139.423 303.122C138.114 304.374 136.294 305 133.961 305Z" fill="white"/>
<path d="M156.829 304.81V290.237H150.788V288.168H165.361V290.237H159.321V304.81H156.829Z" fill="white"/>
<path d="M174.862 304.81V288.168H177.379V304.81H174.862Z" fill="white"/>
<path d="M197.366 305C196.023 305 194.773 304.786 193.616 304.358C192.475 303.93 191.485 303.336 190.646 302.575C189.807 301.799 189.152 300.895 188.682 299.865C188.213 298.835 187.978 297.71 187.978 296.489C187.978 295.269 188.213 294.143 188.682 293.113C189.152 292.083 189.807 291.188 190.646 290.427C191.485 289.65 192.475 289.048 193.616 288.62C194.757 288.192 196.007 287.978 197.366 287.978C198.708 287.978 199.941 288.192 201.066 288.62C202.207 289.032 203.197 289.627 204.036 290.403C204.891 291.164 205.546 292.059 205.999 293.089C206.469 294.12 206.703 295.253 206.703 296.489C206.703 297.725 206.469 298.859 205.999 299.889C205.546 300.919 204.891 301.822 204.036 302.599C203.197 303.36 202.207 303.954 201.066 304.382C199.941 304.794 198.708 305 197.366 305ZM197.366 302.884C198.339 302.884 199.237 302.726 200.059 302.409C200.898 302.092 201.619 301.648 202.223 301.077C202.844 300.491 203.322 299.809 203.658 299.033C204.01 298.256 204.187 297.408 204.187 296.489C204.187 295.57 204.01 294.722 203.658 293.945C203.322 293.169 202.844 292.495 202.223 291.925C201.619 291.338 200.898 290.887 200.059 290.57C199.237 290.253 198.339 290.094 197.366 290.094C196.376 290.094 195.461 290.253 194.622 290.57C193.8 290.887 193.079 291.338 192.458 291.925C191.837 292.495 191.35 293.169 190.998 293.945C190.662 294.722 190.495 295.57 190.495 296.489C190.495 297.408 190.662 298.256 190.998 299.033C191.35 299.809 191.837 300.491 192.458 301.077C193.079 301.648 193.8 302.092 194.622 302.409C195.461 302.726 196.376 302.884 197.366 302.884Z" fill="white"/>
<path d="M217.31 304.81V288.168H219.373L231.027 301.838H229.944V288.168H232.461V304.81H230.397L218.744 291.14H219.826V304.81H217.31Z" fill="white"/>
<path d="M251.253 304.81V288.168H253.77V304.81H251.253Z" fill="white"/>
<path d="M265.804 304.81V288.168H267.868L279.521 301.838H278.439V288.168H280.956V304.81H278.892L267.238 291.14H268.321V304.81H265.804Z" fill="white"/>
<path d="M300.866 305C299.524 305 298.282 304.794 297.141 304.382C296.017 303.954 295.035 303.36 294.196 302.599C293.374 301.822 292.728 300.919 292.258 299.889C291.789 298.859 291.554 297.725 291.554 296.489C291.554 295.253 291.789 294.12 292.258 293.089C292.728 292.059 293.383 291.164 294.221 290.403C295.06 289.627 296.042 289.032 297.166 288.62C298.307 288.192 299.549 287.978 300.891 287.978C302.25 287.978 303.5 288.2 304.641 288.644C305.799 289.072 306.781 289.714 307.586 290.57L305.95 292.067C305.279 291.402 304.524 290.91 303.685 290.593C302.846 290.26 301.948 290.094 300.992 290.094C300.002 290.094 299.079 290.253 298.223 290.57C297.384 290.887 296.655 291.33 296.034 291.901C295.413 292.471 294.926 293.153 294.574 293.945C294.238 294.722 294.07 295.57 294.07 296.489C294.07 297.408 294.238 298.264 294.574 299.057C294.926 299.833 295.413 300.507 296.034 301.077C296.655 301.648 297.384 302.092 298.223 302.409C299.079 302.726 300.002 302.884 300.992 302.884C301.948 302.884 302.846 302.726 303.685 302.409C304.524 302.076 305.279 301.569 305.95 300.887L307.586 302.385C306.781 303.241 305.799 303.891 304.641 304.334C303.5 304.778 302.242 305 300.866 305Z" fill="white"/>
<path d="M318.162 304.952C317.693 304.952 317.29 304.802 316.954 304.501C316.619 304.184 316.451 303.788 316.451 303.312C316.451 302.837 316.619 302.448 316.954 302.147C317.29 301.846 317.693 301.695 318.162 301.695C318.615 301.695 319.001 301.846 319.32 302.147C319.656 302.448 319.824 302.837 319.824 303.312C319.824 303.788 319.656 304.184 319.32 304.501C319.001 304.802 318.615 304.952 318.162 304.952Z" fill="white"/>
<path fill-rule="evenodd" clip-rule="evenodd" d="M80.3121 152.331L89.2582 144.82L89.9472 146.154L115.604 142.444L117.33 144.544C121.783 149.444 127.031 153.397 132.797 157.113L135.559 158.736L134.863 182.226L148.536 186.353L164.424 167.449L167.739 167.659C174.887 167.842 181.793 167.556 188.734 166.096L191.566 165.371L209.207 182.15L222.675 175.946L219.538 152.484L221.886 150.823C227.377 146.556 229.236 145.105 233.485 139.673L240.676 145.908C237.222 150.396 235.387 152.133 230.932 155.924L234.759 181.963L206.787 194.85L187.903 176.905C181.998 177.888 175.852 178.403 169.981 178.211L152.505 199.005L123.639 190.293L124.404 164.454C119.64 161.436 115.152 157.712 111.182 153.748L82.9697 157.478L80.3121 152.331Z" fill="white"/>
<path fill-rule="evenodd" clip-rule="evenodd" d="M69.9226 132.21L90.1266 114.214C89.2644 108.819 88.9203 103.185 89.3358 97.7811L67.3088 82.4429L77.8116 55.5938L105.919 55.3877C109.373 50.9004 113.587 46.6423 118.042 42.8522L114.974 17.042L142.947 4.15539L161.831 22.0999C167.736 21.1172 173.882 20.6025 179.752 20.7943L197.229 0L226.094 8.71244L225.329 34.5508C230.094 37.5688 231.134 38.3478 235.104 42.311L228.101 50.377C228.101 50.377 224.738 46.7502 222.249 44.8582C219.381 42.6793 214.175 40.2688 214.175 40.2688L214.87 16.7794L201.197 12.6524L185.309 31.5563L181.994 31.3458C174.847 31.1633 167.941 31.4488 161 32.9087L158.168 33.634L140.527 16.8547L127.059 23.0593L130.196 46.5206L127.848 48.1817C122.356 52.4491 117.866 57.4138 113.618 62.8463L111.753 65.4432L86.2004 65.6306L81.2253 78.3485L101.25 92.2923L100.904 95.3478C100.212 101.459 100.521 108.267 101.867 114.598L102.557 117.176L83.6652 133.988L86.0669 139.132L77.1226 146.154L69.9226 132.21Z" fill="#F18018"/>
<path fill-rule="evenodd" clip-rule="evenodd" d="M215.22 64.2903C199.689 48.7171 173.894 44.1795 151.226 54.6223C127.432 65.5842 115.287 89.2731 120.521 111.352L86.0669 139.132L83.6652 133.988L102.557 117.176L101.867 114.598C100.521 108.267 100.212 101.459 100.904 95.3478L101.25 92.2923L81.2253 78.3485L86.2004 65.6306L111.753 65.4432L113.618 62.8463C117.866 57.4138 122.356 52.4491 127.848 48.1817L130.196 46.5206L127.059 23.0593L140.527 16.8547L158.168 33.634L161 32.9087C167.941 31.4488 174.847 31.1633 181.994 31.3458L185.309 31.5563L201.197 12.6524L214.87 16.7794L214.175 40.2688C214.175 40.2688 219.381 42.6793 222.249 44.8582C224.738 46.7502 228.101 50.377 228.101 50.377L215.22 64.2903Z" fill="#F18018"/>
<path fill-rule="evenodd" clip-rule="evenodd" d="M89.9472 146.154L89.2582 144.82L122.602 117.099C122.871 117.831 123.87 120.391 124.53 122.034C124.842 122.811 125.078 123.382 125.126 123.458C125.223 123.612 124.042 121.092 124.394 121.774C124.439 121.861 124.484 121.948 124.53 122.034C137.319 146.43 169.43 155.816 196.936 143.145C205.702 139.106 212.886 133.341 218.204 126.565L233.485 139.673C229.236 145.105 227.377 146.556 221.886 150.823L219.538 152.484L222.675 175.946L209.207 182.15L191.566 165.371L188.734 166.096C181.793 167.556 174.887 167.842 167.739 167.659L164.424 167.449L148.536 186.353L134.863 182.226L135.559 158.736L132.797 157.113C127.031 153.397 121.783 149.444 117.33 144.544L115.604 142.444L89.9472 146.154Z" fill="white"/>
<path fill-rule="evenodd" clip-rule="evenodd" d="M124.53 122.034C124.484 121.948 124.439 121.861 124.394 121.774C123.775 120.575 123.467 119.647 123.12 118.601C122.965 118.135 122.803 117.646 122.602 117.099C122.871 117.831 123.87 120.391 124.53 122.034Z" fill="#F18018"/>
</svg>
