<svg width="190" height="102" viewBox="0 0 190 102" fill="none" xmlns="http://www.w3.org/2000/svg">
<path d="M45.6935 60.3283C44.0681 60.3283 42.553 60.0668 41.1483 59.544C39.7636 59.001 38.5596 58.2369 37.5361 57.2515C36.5127 56.2662 35.71 55.1099 35.128 53.7827C34.5661 52.4554 34.2852 50.9975 34.2852 49.4089C34.2852 47.8202 34.5661 46.3623 35.128 45.0351C35.71 43.7079 36.5127 42.5516 37.5361 41.5662C38.5796 40.5808 39.7937 39.8267 41.1784 39.3039C42.563 38.761 44.0781 38.4895 45.7236 38.4895C47.5498 38.4895 49.1953 38.8112 50.6602 39.4547C52.1452 40.0781 53.3894 41.0031 54.3927 42.2298L51.2622 45.1256C50.5398 44.3011 49.7371 43.6877 48.8541 43.2856C47.9712 42.8633 47.0079 42.6521 45.9644 42.6521C44.9811 42.6521 44.0781 42.813 43.2553 43.1347C42.4326 43.4565 41.7202 43.919 41.1181 44.5223C40.5161 45.1256 40.0445 45.8395 39.7034 46.6639C39.3823 47.4884 39.2218 48.4034 39.2218 49.4089C39.2218 50.4143 39.3823 51.3293 39.7034 52.1538C40.0445 52.9783 40.5161 53.6922 41.1181 54.2954C41.7202 54.8987 42.4326 55.3612 43.2553 55.683C44.0781 56.0047 44.9811 56.1656 45.9644 56.1656C47.0079 56.1656 47.9712 55.9645 48.8541 55.5623C49.7371 55.14 50.5398 54.5066 51.2622 53.662L54.3927 56.5577C53.3894 57.7844 52.1452 58.7195 50.6602 59.363C49.1953 60.0065 47.5397 60.3283 45.6935 60.3283Z" fill="white"/>
<path d="M67.4792 60.3283C65.8136 60.3283 64.2684 60.0568 62.8436 59.5138C61.4389 58.9709 60.2148 58.2067 59.1713 57.2214C58.1479 56.236 57.3452 55.0797 56.7632 53.7525C56.2013 52.4253 55.9204 50.9774 55.9204 49.4089C55.9204 47.8403 56.2013 46.3925 56.7632 45.0652C57.3452 43.738 58.1579 42.5817 59.2014 41.5964C60.2449 40.611 61.469 39.8469 62.8737 39.3039C64.2785 38.761 65.8036 38.4895 67.4491 38.4895C69.1147 38.4895 70.6398 38.761 72.0245 39.3039C73.4292 39.8469 74.6433 40.611 75.6667 41.5964C76.7102 42.5817 77.523 43.738 78.1049 45.0652C78.6869 46.3723 78.9779 47.8202 78.9779 49.4089C78.9779 50.9774 78.6869 52.4353 78.1049 53.7827C77.523 55.1099 76.7102 56.2662 75.6667 57.2515C74.6433 58.2168 73.4292 58.9709 72.0245 59.5138C70.6398 60.0568 69.1247 60.3283 67.4792 60.3283ZM67.4491 56.1656C68.3923 56.1656 69.2552 56.0047 70.0378 55.683C70.8405 55.3612 71.5429 54.8987 72.1449 54.2954C72.7469 53.6922 73.2085 52.9783 73.5295 52.1538C73.8707 51.3293 74.0413 50.4143 74.0413 49.4089C74.0413 48.4034 73.8707 47.4884 73.5295 46.6639C73.2085 45.8395 72.7469 45.1256 72.1449 44.5223C71.5629 43.919 70.8706 43.4565 70.0679 43.1347C69.2652 42.813 68.3923 42.6521 67.4491 42.6521C66.506 42.6521 65.633 42.813 64.8303 43.1347C64.0477 43.4565 63.3554 43.919 62.7533 44.5223C62.1513 45.1256 61.6797 45.8395 61.3386 46.6639C61.0175 47.4884 60.857 48.4034 60.857 49.4089C60.857 50.3942 61.0175 51.3092 61.3386 52.1538C61.6797 52.9783 62.1413 53.6922 62.7232 54.2954C63.3253 54.8987 64.0276 55.3612 64.8303 55.683C65.633 56.0047 66.506 56.1656 67.4491 56.1656Z" fill="white"/>
<path d="M82.6427 59.9663V38.8514H91.7633C93.6496 38.8514 95.2751 39.1631 96.6397 39.7865C98.0043 40.3898 99.0578 41.2646 99.8003 42.4108C100.543 43.557 100.914 44.9245 100.914 46.5131C100.914 48.0816 100.543 49.439 99.8003 50.5853C99.0578 51.7114 98.0043 52.5761 96.6397 53.1794C95.2751 53.7827 93.6496 54.0843 91.7633 54.0843H85.3518L87.519 51.9426V59.9663H82.6427ZM96.0377 59.9663L90.77 52.3046H95.9775L101.305 59.9663H96.0377ZM87.519 52.4856L85.3518 50.1931H91.4924C92.9975 50.1931 94.1212 49.8714 94.8637 49.2279C95.6062 48.5643 95.9775 47.6594 95.9775 46.5131C95.9775 45.3468 95.6062 44.4418 94.8637 43.7983C94.1212 43.1549 92.9975 42.8331 91.4924 42.8331H85.3518L87.519 40.5105V52.4856Z" fill="white"/>
<path d="M109.263 47.3577H119.407V51.1584H109.263V47.3577ZM109.624 56.045H121.092V59.9663H104.778V38.8514H120.701V42.7728H109.624V56.045Z" fill="white"/>
<path d="M124.972 59.9663V38.8514H134.545C136.832 38.8514 138.849 39.2938 140.595 40.1787C142.341 41.0434 143.705 42.26 144.689 43.8285C145.672 45.397 146.164 47.2572 146.164 49.4089C146.164 51.5405 145.672 53.4006 144.689 54.9892C143.705 56.5577 142.341 57.7844 140.595 58.6692C138.849 59.5339 136.832 59.9663 134.545 59.9663H124.972ZM129.849 55.9545H134.304C135.708 55.9545 136.923 55.693 137.946 55.1702C138.989 54.6273 139.792 53.8631 140.354 52.8777C140.936 51.8924 141.227 50.7361 141.227 49.4089C141.227 48.0615 140.936 46.9052 140.354 45.94C139.792 44.9546 138.989 44.2005 137.946 43.6777C136.923 43.1347 135.708 42.8633 134.304 42.8633H129.849V55.9545Z" fill="#F18018"/>
<path d="M154.326 47.3577H164.47V51.1584H154.326V47.3577ZM154.687 56.045H166.156V59.9663H149.841V38.8514H165.765V42.7728H154.687V56.045Z" fill="#F18018"/>
<path d="M176.063 59.9663L166.973 38.8514H172.24L180.187 57.5532H177.087L185.154 38.8514H190L180.879 59.9663H176.063Z" fill="#F18018"/>
<path fill-rule="evenodd" clip-rule="evenodd" d="M6.22061 77.8118L10.5003 73.9997L10.8299 74.6769L23.1037 72.7936L23.9295 73.8599C26.0599 76.3463 28.5704 78.353 31.3286 80.2385L32.65 81.0626L32.3172 92.984L38.8582 95.0786L46.4588 85.4844L48.0446 85.5912C51.464 85.6838 54.7677 85.5389 58.0882 84.798L59.4428 84.4299L67.8822 92.9458L74.3252 89.7968L72.8243 77.8896L73.9478 77.0466C76.5747 74.8807 77.4639 74.1444 79.4963 71.3873L82.9364 74.5522C81.2841 76.8296 80.4065 77.7115 78.2752 79.6351L80.1061 92.8508L66.7246 99.391L57.6906 90.2838C54.8658 90.7825 51.9254 91.0437 49.1172 90.9464L40.7566 101.5L26.9478 97.0782L27.3138 83.9646C25.0345 82.4329 22.8875 80.5426 20.9882 78.5311L7.49196 80.4239L6.22061 77.8118Z" fill="white"/>
<path fill-rule="evenodd" clip-rule="evenodd" d="M1.2504 67.6001L10.9157 58.4666C10.5033 55.7284 10.3387 52.8692 10.5374 50.1263L0 42.3418L5.02442 28.7152L18.4707 28.6107C20.1231 26.3332 22.1388 24.1721 24.2701 22.2486L22.8025 9.14922L36.1841 2.60896L45.2181 11.7162C48.0429 11.2175 50.9833 10.9563 53.7914 11.0536L62.1521 0.5L75.9609 4.92178L75.5949 18.0354C77.8742 19.5671 78.3718 19.9625 80.2711 21.9739L76.9207 26.0676C76.9207 26.0676 75.3121 24.2269 74.1211 23.2666C72.7495 22.1608 70.2587 20.9374 70.2587 20.9374L70.5915 9.01595L64.0504 6.92143L56.4499 16.5156L54.8641 16.4088C51.4447 16.3162 48.1409 16.461 44.8205 17.202L43.4659 17.5701L35.0265 9.05415L28.5835 12.2032L30.0844 24.1104L28.9609 24.9534C26.334 27.1192 24.1861 29.6389 22.1537 32.396L21.2614 33.7141L9.03748 33.8091L6.65749 40.2638L16.237 47.3406L16.0715 48.8914C15.7405 51.9929 15.8885 55.4482 16.5321 58.6613L16.8622 59.9698L7.82471 68.5025L8.97365 71.1127L4.6948 74.6769L1.2504 67.6001Z" fill="#F18018"/>
<path fill-rule="evenodd" clip-rule="evenodd" d="M70.7587 33.1289C63.3288 25.2251 50.989 22.9222 40.1451 28.2222C28.7622 33.7856 22.9523 45.8083 25.456 57.014L8.97365 71.1127L7.82471 68.5025L16.8622 59.9698L16.5321 58.6613C15.8885 55.4482 15.7405 51.9929 16.0715 48.8914L16.237 47.3406L6.65749 40.2638L9.03748 33.8091L21.2614 33.7141L22.1537 32.396C24.1861 29.6389 26.334 27.1192 28.9609 24.9534L30.0844 24.1104L28.5835 12.2032L35.0265 9.05415L43.4659 17.5701L44.8205 17.202C48.1409 16.461 51.4447 16.3162 54.8641 16.4088L56.4499 16.5156L64.0504 6.92143L70.5915 9.01595L70.2587 20.9374C70.2587 20.9374 72.7495 22.1608 74.1211 23.2666C75.3121 24.2269 76.9207 26.0676 76.9207 26.0676L70.7587 33.1289Z" fill="#F18018"/>
<path fill-rule="evenodd" clip-rule="evenodd" d="M10.8299 74.6769L10.5003 73.9997L26.4513 59.9306C26.58 60.3019 27.0579 61.6016 27.3738 62.4353C27.5231 62.8295 27.6362 63.1195 27.6591 63.158C27.7053 63.236 27.1406 61.9571 27.309 62.3032C27.3305 62.3473 27.3521 62.3914 27.3738 62.4353C33.4922 74.8169 48.8533 79.5807 62.0119 73.1494C66.2053 71.0999 69.6423 68.1738 72.186 64.7348L79.4963 71.3873C77.4639 74.1444 76.5747 74.8807 73.9478 77.0466L72.8243 77.8896L74.3252 89.7968L67.8822 92.9458L59.4428 84.4299L58.0882 84.798C54.7677 85.5389 51.464 85.6838 48.0446 85.5912L46.4588 85.4844L38.8582 95.0786L32.3172 92.984L32.65 81.0626L31.3286 80.2385C28.5704 78.353 26.0599 76.3463 23.9295 73.8599L23.1037 72.7936L10.8299 74.6769Z" fill="white"/>
<path fill-rule="evenodd" clip-rule="evenodd" d="M27.3738 62.4353C27.3521 62.3914 27.3305 62.3473 27.309 62.3032C27.0128 61.6946 26.8655 61.224 26.6992 60.6928C26.6253 60.4565 26.5475 60.2083 26.4513 59.9306C26.58 60.3019 27.0579 61.6016 27.3738 62.4353Z" fill="#F18018"/>
</svg>
