<svg width="58" height="66" viewBox="0 0 58 66" fill="none" xmlns="http://www.w3.org/2000/svg">
<path d="M28.9994 35.9009V4L51.2216 15.6003L28.9994 27.2006" stroke="white" stroke-opacity="0.5" stroke-width="8" stroke-linecap="round" stroke-linejoin="round"/>
<path d="M52.7797 27.8443C54.2579 32.6009 54.3962 37.7006 53.1781 42.5369C51.9601 47.3731 49.437 51.7422 45.909 55.1245C42.381 58.5067 37.9967 60.7596 33.2775 61.6153C28.5584 62.4709 23.7032 61.8931 19.2896 59.9508C14.8759 58.0085 11.0895 54.7833 8.38102 50.659C5.6725 46.5347 4.1558 41.6848 4.01137 36.6865C3.86694 31.6881 5.10087 26.7516 7.56634 22.4644C10.0318 18.1771 13.6251 14.7195 17.9186 12.5029" stroke="white" stroke-opacity="0.5" stroke-width="8" stroke-linecap="round" stroke-linejoin="round"/>
<path d="M17.8933 27.1924C16.5014 29.1268 15.5952 31.3941 15.2574 33.7877C14.9195 36.1813 15.1607 38.6252 15.9589 40.8966C16.7572 43.168 18.0871 45.1947 19.8276 46.7922C21.5681 48.3897 23.6638 49.5071 25.9237 50.0426C28.1837 50.5781 30.536 50.5147 32.7665 49.8582C34.997 49.2017 37.0347 47.9729 38.6939 46.2838C40.3532 44.5948 41.5812 42.4991 42.2662 40.1877C42.9511 37.8763 43.0713 35.4228 42.6156 33.0505" stroke="white" stroke-opacity="0.5" stroke-width="8" stroke-linecap="round" stroke-linejoin="round"/>
</svg>
