<svg width="11" height="2" viewBox="0 0 11 2" fill="none" xmlns="http://www.w3.org/2000/svg">
<path d="M6.25 1C6.25 1.19778 6.19135 1.39112 6.08147 1.55557C5.97159 1.72002 5.81541 1.84819 5.63268 1.92388C5.44996 1.99957 5.24889 2.01937 5.05491 1.98079C4.86093 1.9422 4.68275 1.84696 4.54289 1.70711C4.40304 1.56725 4.3078 1.38907 4.26922 1.19509C4.23063 1.00111 4.25043 0.800043 4.32612 0.617317C4.40181 0.434591 4.52998 0.278412 4.69443 0.16853C4.85888 0.0586491 5.05222 0 5.25 0C5.51522 0 5.76957 0.105357 5.95711 0.292893C6.14464 0.48043 6.25 0.734784 6.25 1ZM1 0C0.802219 0 0.60888 0.0586491 0.44443 0.16853C0.279981 0.278412 0.151809 0.434591 0.0761209 0.617317C0.000433281 0.800043 -0.0193701 1.00111 0.0192152 1.19509C0.0578004 1.38907 0.153041 1.56725 0.292894 1.70711C0.432746 1.84696 0.610929 1.9422 0.80491 1.98079C0.998891 2.01937 1.19996 1.99957 1.38268 1.92388C1.56541 1.84819 1.72159 1.72002 1.83147 1.55557C1.94135 1.39112 2 1.19778 2 1C2 0.734784 1.89464 0.48043 1.70711 0.292893C1.51957 0.105357 1.26522 0 1 0ZM9.5 0C9.30222 0 9.10888 0.0586491 8.94443 0.16853C8.77998 0.278412 8.65181 0.434591 8.57612 0.617317C8.50043 0.800043 8.48063 1.00111 8.51922 1.19509C8.5578 1.38907 8.65304 1.56725 8.79289 1.70711C8.93275 1.84696 9.11093 1.9422 9.30491 1.98079C9.49889 2.01937 9.69996 1.99957 9.88268 1.92388C10.0654 1.84819 10.2216 1.72002 10.3315 1.55557C10.4414 1.39112 10.5 1.19778 10.5 1C10.5 0.734784 10.3946 0.48043 10.2071 0.292893C10.0196 0.105357 9.76522 0 9.5 0Z" fill="black"/>
</svg>
