<svg width="56" height="56" viewBox="0 0 56 56" fill="none" xmlns="http://www.w3.org/2000/svg">
<path d="M3 17.9658C3.27368 12.4395 4.0921 8.9921 6.54474 6.54474C8.9921 4.0921 12.4395 3.27368 17.9658 3M53 17.9658C52.7263 12.4395 51.9079 8.9921 49.4553 6.54474C47.0079 4.0921 43.5605 3.27368 38.0342 3M38.0342 53C43.5605 52.7263 47.0079 51.9079 49.4553 49.4553C51.9079 47.0079 52.7263 43.5605 53 38.0342M17.9658 53C12.4395 52.7263 8.9921 51.9079 6.54474 49.4553C4.0921 47.0079 3.27368 43.5605 3 38.0342M48.0921 26.2053C48.7316 27.0053 49.0526 27.4079 49.0526 28C49.0526 28.5921 48.7316 28.9947 48.0921 29.7947C45.2158 33.3947 37.8711 41.1579 28 41.1579C18.1289 41.1579 10.7842 33.3947 7.90789 29.7947C7.26842 28.9947 6.94737 28.5921 6.94737 28C6.94737 27.4079 7.26842 27.0053 7.90789 26.2053C10.7842 22.6053 18.1289 14.8421 28 14.8421C37.8711 14.8421 45.2158 22.6053 48.0921 26.2053Z" stroke="white" stroke-opacity="0.5" stroke-width="6" stroke-linecap="round" stroke-linejoin="round"/>
<path d="M33.2631 28C33.2631 26.6041 32.7086 25.2654 31.7216 24.2784C30.7346 23.2913 29.3959 22.7368 28 22.7368C26.6041 22.7368 25.2654 23.2913 24.2784 24.2784C23.2913 25.2654 22.7368 26.6041 22.7368 28C22.7368 29.3959 23.2913 30.7346 24.2784 31.7216C25.2654 32.7086 26.6041 33.2631 28 33.2631C29.3959 33.2631 30.7346 32.7086 31.7216 31.7216C32.7086 30.7346 33.2631 29.3959 33.2631 28Z" stroke="white" stroke-opacity="0.5" stroke-width="6" stroke-linecap="round" stroke-linejoin="round"/>
</svg>
